<?xml version="1.0" encoding="utf-8"?>
<!-- Generator: Adobe Illustrator 23.0.1, SVG Export Plug-In . SVG Version: 6.00 Build 0)  -->
<svg version="1.1" id="Calque_1" xmlns="http://www.w3.org/2000/svg" xmlns:xlink="http://www.w3.org/1999/xlink" x="0px" y="0px"
	 viewBox="0 0 432 432" style="enable-background:new 0 0 432 432;" xml:space="preserve">
<style type="text/css">
	.st0{fill:#AB8056;}
	.st1{fill:#1A1A1A;}
	.st2{fill:#736358;}
	.st3{fill:#C48C10;}
	.st4{fill:#544841;}
	.st5{fill:#E884A9;}
	.st6{fill:#B3B3B2;}
	.st7{fill:#C0282E;}
	.st8{fill:#333333;}
	.st9{fill:#19854B;}
	.st10{fill:#EBC776;}
	.st11{fill:#D5A953;}
	.st12{fill:#E1DFDB;}
	.st13{fill:#D2B155;}
	.st14{fill:#E8973E;}
	.st15{fill:#3A6C51;}
	.st16{fill:#036838;}
	.st17{fill:#4E695A;}
	.st18{fill:#8B3F43;}
	.st19{fill:#476C58;}
	.st20{fill:#A24F4D;}
	.st21{fill:#C5ADA4;}
	.st22{fill:#CCCBCB;}
	.st23{fill:#B79FA7;}
	.st24{fill:#815969;}
	.st25{fill:#A7A7A6;}
	.st26{fill:#D0AD76;}
	.st27{fill:#E8B953;}
	.st28{fill:#C59B6C;}
	.st29{fill:#F29222;}
	.st30{fill:#E6E5E5;}
	.st31{fill:#D2B79A;}
	.st32{fill:#BE8B65;}
	.st33{fill:#81A993;}
	.st34{fill:#9C7684;}
	.st35{fill:#824D61;}
	.st36{fill:#B14044;}
	.st37{fill:#8F5168;}
	.st38{fill:#D88EA9;}
	.st39{fill:#805C5C;}
	.st40{fill:#CCA3A3;}
	.st41{fill:#FFFFFF;}
	.st42{fill:#6A9DC3;}
	.st43{fill:#F49F5A;}
	.st44{fill:#6A3E4D;}
	.st45{fill:#F8AF3C;}
	.st46{fill:#EA5877;}
	.st47{fill:#F1D86A;}
	.st48{fill:#5EBEBD;}
	.st49{fill:#BDCD55;}
	.st50{fill:#A5A4A5;}
	.st51{fill:#B09FA0;}
	.st52{fill:#60AE9F;}
	.st53{fill:#BB8071;}
	.st54{fill:#9E7BB5;}
	.st55{fill:#A57C52;}
	.st56{fill:#E8973E;stroke:#E8973E;stroke-miterlimit:10;}
	.st57{fill:#AD375A;}
	.st58{fill:#7E8C66;}
	.st59{fill:#7C887F;}
	.st60{fill:#472912;}
	.st61{fill:#2B1A0F;}
	.st62{fill:#E52E31;}
	.st63{fill:#CA656A;}
	.st64{fill:#4E4D4D;}
	.st65{fill:#3A6D86;}
	.st66{fill:#1D1D1B;}
	.st67{fill:#0D0D0D;}
	.st68{fill:#EA94AA;}
	.st69{fill:#8DA198;}
	.st70{fill:#C896A9;}
	.st71{fill:#F5C645;}
	.st72{fill:#EFB443;}
	.st73{fill:#E68A44;}
	.st74{fill:#622C6A;}
	.st75{fill:#279352;}
	.st76{fill:#479754;}
	.st77{fill:#8764A2;}
	.st78{fill:#B59471;}
	.st79{fill:#B8D38E;}
	.st80{fill:#5CAF62;}
	.st81{fill:#F5DB56;}
	.st82{fill:#9C9E9F;}
	.st83{fill:#207242;}
	.st84{fill:#404041;}
	.st85{fill:#C1C2C1;}
	.st86{fill:#CBCACA;}
	.st87{fill:#904290;}
	.st88{fill:#129E56;}
	.st89{fill:#F1CC45;}
	.st90{fill:#5C3289;}
	.st91{fill:#2AA658;}
	.st92{fill:#C49A6C;}
	.st93{fill:#F1F1F1;}
	.st94{fill:#754D27;}
	.st95{fill:#8B6239;}
	.st96{fill:#B3B2B2;}
	.st97{fill:#979796;}
	.st98{fill:#C38045;}
	.st99{fill:#0E1014;}
	.st100{fill:#D8AA58;}
	.st101{fill:#0B0C0E;}
	.st102{fill:#6A4694;}
	.st103{fill:#3EA958;}
	.st104{fill:#FAD96F;}
	.st105{fill:#C58489;}
	.st106{fill:#C98C94;}
	.st107{fill:#2C2E30;}
	.st108{fill:#DDAAB1;}
	.st109{fill:#5A9AB5;}
	.st110{fill:#989898;}
	.st111{fill:#469771;}
	.st112{fill:#B59825;}
	.st113{fill:#E96C99;}
	.st114{fill:#BFA490;}
	.st115{fill:#808080;}
	.st116{fill:#80C9CB;}
	.st117{fill:#C9CE66;}
	.st118{fill:#72A6CB;}
	.st119{fill:#ED799D;}
	.st120{fill:#F4AB5E;}
	.st121{fill:#F2902A;}
	.st122{fill:#7FBB48;}
	.st123{fill:#ED7AA9;}
	.st124{fill:#53A2DA;}
	.st125{fill:#07473E;}
	.st126{fill:#960527;}
	.st127{fill:#110A09;}
	.st128{fill:#F15A24;}
	.st129{fill:#9B0808;}
	.st130{fill:#EFEFEF;}
	.st131{fill:#87C1BF;}
	.st132{fill:#E58645;}
	.st133{fill:#4F3928;}
	.st134{fill:#666666;}
	.st135{fill:#BDCCD4;}
	.st136{fill:#A0C1C0;}
</style>

<g>
	<g>
		<path class="st44" d="M54.83,183.8c-0.82-0.95-1.62-1.79-2.3-2.72c-0.62-0.84-1.22-1.73-1.64-2.69c-1.28-2.87,0.47-5.21,3.59-4.88
			c0.23,0.02,0.47,0.04,0.9,0.09c-0.29-0.43-0.49-0.72-0.69-1.01c-1.39-1.98-2.59-4.07-3.49-6.32c-0.43-1.08-0.77-2.18-0.79-3.36
			c-0.05-2.24,1.21-3.57,3.45-3.67c1.29-0.06,2.49,0.28,3.66,0.78c1.7,0.74,3.21,1.79,4.58,3.02c1.14,1.02,2.21,2.11,3.3,3.18
			c0.21,0.21,0.38,0.47,0.56,0.71c0.07-0.04,0.13-0.08,0.2-0.12c-0.03-0.2-0.04-0.41-0.09-0.61c-0.54-2.13-0.78-4.28-0.29-6.46
			c0.1-0.43,0.24-0.85,0.42-1.25c0.95-2.04,3.02-2.65,4.94-1.44c1,0.63,1.77,1.51,2.33,2.53c0.69,1.25,1.33,2.53,1.9,3.83
			c1.34,3.05,2.68,6.1,4.35,8.99c0.18,0.32,0.38,0.63,0.73,0.93c0.02-0.35,0.04-0.69,0.06-1.04c0.04-0.86,0.21-1.69,0.71-2.41
			c0.72-1.03,1.75-1.44,2.94-1.03c0.59,0.2,1.2,0.53,1.65,0.96c0.68,0.65,1.28,1.41,1.82,2.18c0.84,1.19,1.6,2.45,2.41,3.66
			c1.13,1.69,2.63,3.01,4.27,4.2c1.58,1.14,3.33,1.62,5.26,1.59c3.29-0.05,6.41-0.85,9.35-2.24c4.62-2.19,8.55-5.3,11.57-9.45
			c1.01-1.39,1.8-2.94,2.73-4.48c-0.64-0.63-1.2-1.17-1.74-1.72c-0.41-0.41-0.88-0.29-1.33-0.15c-1.62,0.5-3.24,1.01-4.87,1.51
			c-2.01,0.63-4.04,1.2-6.15,1.4c-1.43,0.13-2.85,0.14-4.25-0.26c-3.28-0.95-5.03-3.74-4.24-7.06c0.33-1.4,0.98-2.73,1.49-4.13
			c-0.1,0.01-0.31,0.01-0.52,0.05c-2.07,0.4-4.12,0.88-6.2,1.19c-2.09,0.3-4.22,0.35-6.27-0.32c-1.05-0.35-2.1-0.82-3.01-1.45
			c-2.34-1.63-3.26-4.47-2.47-7.22c0.38-1.33,1.08-2.49,1.89-3.59c0.2-0.26,0.38-0.54,0.64-0.91c-0.46,0-0.78-0.02-1.11,0
			c-2.37,0.19-4.74,0.42-7.12,0.17c-1.83-0.19-3.63-0.5-5.35-1.22c-0.92-0.39-1.75-0.91-2.43-1.65c-1.16-1.28-1.37-2.9-0.6-4.45
			c0.63-1.25,1.61-2.21,2.81-2.88c1.36-0.77,2.76-1.46,4.19-2.08c3.79-1.63,7.79-2.6,11.79-3.56c5.02-1.21,10.06-2.34,15.18-3.07
			c4.23-0.6,8.46-0.81,12.68,0.09c4.81,1.03,8.69,3.49,11.4,7.61c1.53,2.32,2.88,4.77,4.31,7.17c0.17,0.29,0.34,0.57,0.62,1.03
			c0.15-0.49,0.27-0.81,0.36-1.15c2.76-10.4,7.14-20.02,13.62-28.65c3.61-4.81,7.65-9.2,12.39-12.93c2.55-2.01,5.29-3.7,8.22-5.08
			c0.27-0.13,0.53-0.27,0.86-0.44c-0.25-0.35-0.46-0.65-0.67-0.94c-1.31-1.79-2.51-3.65-3.27-5.74c-0.27-0.75-0.43-1.57-0.51-2.37
			c-0.08-0.83,0.28-1.53,1.06-1.94c0.75-0.4,1.49-0.25,2.11,0.23c0.53,0.4,1.05,0.89,1.41,1.44c0.68,1.05,1.25,2.18,1.86,3.28
			c0.16,0.29,0.3,0.59,0.61,0.85c-0.02-0.35-0.04-0.69-0.07-1.04c-0.27-3.74-0.46-7.47,0.33-11.17c0.19-0.89,0.49-1.77,0.88-2.59
			c0.44-0.93,1.18-1.65,2.31-1.55c1.19,0.11,1.76,0.98,1.98,2.05c0.18,0.86,0.29,1.75,0.31,2.62c0.1,4.58-0.5,9.09-1.26,13.59
			c-0.05,0.27-0.09,0.54-0.12,0.8c-0.01,0.06,0.04,0.12,0.09,0.24c0.17-0.01,0.37,0,0.56-0.03c7.52-1.3,14.63-0.02,21.35,3.46
			c8.11,4.2,14.27,10.44,18.8,18.33c4,6.96,6.51,14.42,7.5,22.38c0.5,4.03,0.48,8.07,0.15,12.11c-0.36,4.41-0.93,8.79-1.87,13.11
			c-1.86,8.59-5.47,16.4-10.34,23.69c-6.27,9.37-14.55,16.35-24.77,21.07c-9.79,4.52-19.94,7.92-30.48,10.21
			c-4.42,0.96-8.85,1.84-13.35,2.35c-2.9,0.33-5.82,0.51-8.74,0.72c-4.79,0.35-9.59,0.3-14.38,0.13
			c-11.34-0.41-22.57-1.6-33.51-4.84c-8.26-2.45-16.11-5.8-23.28-10.63c-3.4-2.29-6.57-4.85-9.18-8.03c-0.94-1.15-1.79-2.4-2.52-3.7
			c-0.44-0.78-0.69-1.71-0.8-2.6c-0.19-1.58,0.69-2.7,2.26-3.01C53.24,183.84,54,183.86,54.83,183.8z M165.75,166.77
			c0-0.16,0-0.32,0-0.48c0.05-1.46,0.16-2.92,0.14-4.38c-0.05-3.47-0.7-6.83-2.11-10.01c-1.19-2.69-3.03-4.82-5.58-6.32
			c-2.68-1.58-5.36-1.5-8.04,0c-1.23,0.69-2.26,1.62-3.16,2.71c-1.18,1.42-2.09,3.01-2.84,4.7c-1.7,3.84-2.56,7.88-2.84,12.05
			c-0.36,5.47,0.15,10.86,1.41,16.2c1.36,5.74,3.58,11.11,6.58,16.18c0.61,1.02,1.43,1.51,2.59,1.46c1.7-0.07,3.4-0.08,5.09-0.28
			c6.17-0.71,12.16-2.21,17.96-4.44c4.67-1.8,9.24-3.81,13.46-6.52c5.02-3.22,9.02-7.42,11.72-12.77c1.69-3.35,2.61-6.89,1.98-10.65
			c-0.91-5.48-3.92-9.23-9.34-10.86c-2.59-0.78-5.23-0.82-7.87-0.3c-5.3,1.04-9.78,3.61-13.62,7.35
			C169.28,162.35,167.49,164.49,165.75,166.77z M67.9,185.79c-0.01,0.04-0.03,0.08-0.04,0.11c-0.34,0.03-0.68,0.06-1.01,0.1
			c-2.19,0.29-3.41,1.89-3.11,4.09c0.14,1.07,0.59,2.02,1.18,2.9c0.92,1.4,2.09,2.59,3.37,3.67c2.82,2.4,6,4.22,9.38,5.68
			c5.71,2.45,11.7,3.96,17.78,5.12c0.5,0.09,1.01,0.16,1.51,0.14c0.6-0.03,1-0.45,1.01-0.95c0.01-0.5-0.37-0.89-0.99-0.97
			c-0.47-0.06-0.95-0.05-1.42-0.14c-4.23-0.85-8.43-1.82-12.53-3.2c-4.17-1.4-8.17-3.16-11.76-5.76c-1.58-1.14-3.08-2.37-4.24-3.95
			c-0.53-0.73-1-1.55-1.28-2.4c-0.49-1.46,0.17-2.28,1.71-2.37c1.12-0.06,2.15,0.26,3.15,0.71c1.15,0.51,2.27,1.08,3.4,1.63
			c0.21,0.1,0.42,0.22,0.65,0.29c0.56,0.17,1.01,0,1.23-0.42c0.23-0.43,0.09-0.88-0.39-1.23c-0.11-0.08-0.23-0.14-0.35-0.2
			c-1.35-0.65-2.66-1.37-4.05-1.92C70.08,186.3,68.97,186.09,67.9,185.79z M197.46,119.6c0.11,1.7,0.69,3.68,1.54,4.84
			c0.77,1.06,1.76,1.81,3.08,1.98c1.98,0.26,3.77-0.97,4.31-3.09c0.65-2.55,0.03-4.9-1.48-7.03c-0.14-0.19-0.32-0.35-0.5-0.51
			c-2.13-1.84-5.26-1.15-6.34,1.46C197.76,117.99,197.65,118.82,197.46,119.6z M101.79,190.74c0.3,0,0.6,0,0.91,0
			c0.87-0.01,1.33-0.31,1.37-0.89c0.04-0.59-0.39-0.94-1.26-1.01c-0.14-0.01-0.27-0.01-0.41-0.03c-2.02-0.25-4.06-0.4-6.06-0.77
			c-9.03-1.67-16.5-6.05-22.45-13.03c-0.26-0.31-0.49-0.65-0.76-0.96c-0.39-0.43-0.88-0.5-1.28-0.22c-0.35,0.25-0.5,0.73-0.29,1.19
			c0.15,0.33,0.38,0.65,0.62,0.93C79.9,185.19,89.9,189.83,101.79,190.74z M105.33,199.8c0.01,1.51,0.44,2.68,1.36,3.61
			c0.76,0.77,1.63,1.42,2.48,2.1c0.2,0.16,0.48,0.26,0.74,0.3c0.4,0.06,0.74-0.12,0.93-0.49c0.18-0.36,0.15-0.73-0.14-1.04
			c-0.16-0.17-0.37-0.29-0.56-0.44c-0.58-0.47-1.18-0.92-1.73-1.42c-1.08-0.99-1.46-2.23-0.96-3.61c0.31-0.84,0.76-1.67,1.31-2.39
			c0.92-1.2,2.16-2.04,3.52-2.71c1.48-0.72,3.05-1.14,4.66-1.39c1.01-0.16,2.03-0.22,3.02-0.42c0.8-0.16,1.08-1.06,0.5-1.54
			c-0.23-0.19-0.62-0.3-0.93-0.27c-2.76,0.19-5.46,0.64-7.99,1.84c-2.06,0.98-3.81,2.35-5.06,4.29
			C105.76,197.39,105.31,198.62,105.33,199.8z"/>
		<path class="st45" d="M237.67,128.84c0.62,0,1.08,0.04,1.54-0.01c3.88-0.42,7.76-0.87,11.65-1.29c0.53-0.06,1.1-0.09,1.61,0.03
			c1.13,0.27,1.5,1.35,0.85,2.31c-0.15,0.22-0.34,0.42-0.54,0.61c-3.72,3.61-7.74,6.84-12.33,9.31c-3.47,1.87-7.1,3.26-11,3.85
			c-0.87,0.13-1.76,0.16-2.64,0.12c-1.06-0.04-1.67-0.69-1.77-1.74c-0.04-0.37-0.02-0.75,0.01-1.12c0.39-5.41-0.23-10.72-1.59-15.95
			c-0.21-0.79-0.42-1.58-0.59-2.37c-0.3-1.42,0.19-2.2,1.61-2.55c4.46-1.09,8.81-2.55,13-4.44c2.71-1.22,5.25-2.71,7.49-4.68
			c0.25-0.22,0.53-0.43,0.81-0.61c0.49-0.31,1.02-0.39,1.53-0.05c0.51,0.34,0.65,0.86,0.55,1.43c-0.06,0.37-0.16,0.73-0.28,1.08
			c-1.84,5.81-4.96,10.85-9.16,15.24C238.19,128.25,237.98,128.5,237.67,128.84z"/>
		<path class="st45" d="M135.82,232.83c0.34,0.32,0.5,0.47,0.66,0.63c1.43,1.43,2.24,3.15,2.23,5.19c-0.01,1.12-0.08,2.24-0.16,3.36
			c-0.02,0.3-0.12,0.6-0.24,0.88c-0.23,0.52-0.73,0.78-1.24,0.67c-0.52-0.11-0.89-0.44-0.9-0.97c-0.01-0.74,0.07-1.49,0.11-2.23
			c0.03-0.64,0.11-1.29,0.08-1.93c-0.12-2.55-2.33-4.66-4.84-4.57c0.15,0.49,0.3,0.96,0.43,1.44c0.45,1.62,0.01,3.09-0.78,4.49
			c-0.34,0.6-0.92,0.78-1.48,0.54c-0.54-0.23-0.78-0.79-0.61-1.45c0.04-0.16,0.12-0.32,0.19-0.47c0.83-2.01,0.52-3.48-1.04-4.97
			c-0.17-0.16-0.37-0.3-0.53-0.48c-0.64-0.72-0.55-1.56,0.26-2.09c0.37-0.24,0.79-0.4,1.2-0.56c1.84-0.73,3.59-1.62,5.19-2.79
			c2.74-2,4.2-4.73,4.65-8.06c0.03-0.2,0.01-0.41,0.06-0.61c0.13-0.59,0.61-0.98,1.15-0.97c0.54,0.02,1.04,0.43,1.09,1.03
			c0.04,0.57,0.02,1.16-0.09,1.72c-0.74,3.68-2.51,6.72-5.63,8.89c-0.25,0.17-0.48,0.36-0.84,0.64c0.33,0.08,0.53,0.14,0.74,0.17
			c4.86,0.75,8.15,3.48,10.07,7.95c0.32,0.75,0.16,1.36-0.43,1.68c-0.58,0.31-1.19,0.11-1.62-0.6c-0.38-0.64-0.71-1.31-1.07-1.97
			c-1.29-2.35-3.33-3.7-5.85-4.42C136.39,232.93,136.23,232.91,135.82,232.83z"/>
		<path class="st45" d="M113.71,232.83c0.34,0.32,0.5,0.47,0.66,0.63c1.43,1.43,2.24,3.15,2.23,5.19c-0.01,1.12-0.08,2.24-0.16,3.36
			c-0.02,0.3-0.12,0.6-0.24,0.88c-0.23,0.52-0.73,0.78-1.24,0.67c-0.52-0.11-0.89-0.44-0.9-0.97c-0.01-0.74,0.07-1.49,0.11-2.23
			c0.03-0.64,0.11-1.29,0.08-1.93c-0.12-2.55-2.33-4.66-4.84-4.57c0.15,0.49,0.3,0.96,0.43,1.44c0.45,1.62,0.01,3.09-0.78,4.49
			c-0.34,0.6-0.92,0.78-1.48,0.54c-0.54-0.23-0.78-0.79-0.61-1.45c0.04-0.16,0.12-0.32,0.19-0.47c0.83-2.01,0.52-3.48-1.04-4.97
			c-0.17-0.16-0.37-0.3-0.53-0.48c-0.64-0.72-0.55-1.56,0.26-2.09c0.37-0.24,0.79-0.4,1.2-0.56c1.84-0.73,3.59-1.62,5.19-2.79
			c2.74-2,4.2-4.73,4.65-8.06c0.03-0.2,0.01-0.41,0.06-0.61c0.13-0.59,0.61-0.98,1.15-0.97c0.54,0.02,1.04,0.43,1.09,1.03
			c0.04,0.57,0.02,1.16-0.09,1.72c-0.74,3.68-2.51,6.72-5.63,8.89c-0.25,0.17-0.48,0.36-0.84,0.64c0.33,0.08,0.53,0.14,0.74,0.17
			c4.86,0.75,8.15,3.48,10.07,7.95c0.32,0.75,0.16,1.36-0.43,1.68c-0.58,0.31-1.19,0.11-1.62-0.6c-0.38-0.64-0.71-1.31-1.07-1.97
			c-1.29-2.35-3.33-3.7-5.85-4.42C114.28,232.93,114.12,232.91,113.71,232.83z"/>
		<path class="st5" d="M143.14,168.31c0.01-4.56,0.65-9.25,2.45-13.74c0.67-1.68,1.45-3.32,2.64-4.69c0.77-0.89,1.63-1.76,2.6-2.41
			c2.14-1.44,4.39-1.49,6.62-0.11c2.24,1.39,3.82,3.35,4.8,5.79c1.1,2.74,1.64,5.6,1.73,8.55c0.08,2.59-0.19,5.16-0.52,7.73
			c-0.06,0.47-0.12,0.95-0.13,1.42c-0.01,0.48,0.23,0.85,0.7,1.02c0.45,0.16,0.83-0.01,1.09-0.34c0.4-0.5,0.76-1.04,1.09-1.6
			c1.78-2.96,3.87-5.67,6.34-8.08c3.38-3.3,7.29-5.65,11.92-6.73c2.56-0.6,5.11-0.65,7.66,0.05c4.67,1.28,7.85,5.23,8.18,10.07
			c0.24,3.48-0.67,6.67-2.34,9.67c-2.79,4.99-6.69,8.92-11.62,11.76c-8.29,4.78-17.11,8.14-26.6,9.58
			c-2.25,0.34-4.52,0.49-6.79,0.73c-0.2,0.02-0.41,0.01-0.61,0.02c-0.76,0.06-1.23-0.26-1.63-0.94c-3.14-5.4-5.34-11.14-6.55-17.27
			C143.51,175.4,143.16,171.99,143.14,168.31z"/>
	</g>
	<g>
		<path class="st5" d="M308.26,284.31c1.85,3.3,3.76,6.42,6.28,9.14c1.76,1.9,3.66,3.66,5.69,5.25c5.85,4.57,12.49,7.36,19.81,8.58
			c4.45,0.74,8.91,1.09,13.41,0.8c3.58-0.23,7.07-0.92,10.5-1.95c3.09-0.93,6.16-1.92,9.26-2.84c1.76-0.52,3.54-1,5.4-0.94
			c0.47,0.02,0.96,0.09,1.39,0.25c1.14,0.41,1.81,1.26,1.76,2.48c-0.04,0.83-0.18,1.73-0.55,2.45c-0.66,1.29-1.43,2.55-2.33,3.7
			c-2.4,3.08-5.36,5.59-8.55,7.83c-5.65,3.98-11.79,7.02-18.27,9.37c-7.67,2.78-15.56,4.61-23.65,5.6
			c-5.44,0.67-10.89,1.08-16.36,1.22c-2.17,0.06-4.35,0.14-6.53,0.14c-10.13-0.03-20.13-1.16-30.02-3.41
			c-10.24-2.33-20.14-5.62-29.7-9.98c-11.12-5.07-19.89-12.79-26.32-23.17c-3.87-6.25-6.95-12.85-8.68-20.03
			c-1.12-4.67-1.81-9.41-2.2-14.19c-0.26-3.19-0.4-6.38-0.18-9.58c0.6-8.64,2.99-16.76,7.14-24.36c2.61-4.79,5.82-9.1,9.87-12.78
			c3.99-3.62,8.4-6.57,13.48-8.45c0.16-0.06,0.3-0.14,0.52-0.24c-0.07-0.33-0.11-0.66-0.2-0.97c-0.72-2.53-1.73-4.94-3.07-7.2
			c-1.63-2.75-3.83-4.93-6.62-6.49c-1.11-0.62-2.29-1.01-3.59-1.01c-3.05,0.01-5.09,2.12-4.84,5.15c0.14,1.79,0.91,3.34,2.31,4.5
			c0.31,0.26,0.67,0.48,1.03,0.64c0.88,0.39,1.6,0.21,2.15-0.57c0.29-0.41,0.5-0.89,0.73-1.34c0.18-0.37,0.31-0.76,0.49-1.12
			c0.32-0.61,0.87-0.84,1.44-0.64c0.57,0.2,0.94,0.87,0.67,1.5c-0.48,1.11-0.96,2.27-1.67,3.24c-1.06,1.45-2.79,1.82-4.48,1.2
			c-3.82-1.39-6.65-7.35-4.07-11.56c1.49-2.42,4.35-3.75,7.27-3.32c1.44,0.21,2.76,0.72,4,1.45c3.34,1.96,5.89,4.68,7.71,8.09
			c0.16,0.3,0.34,0.58,0.52,0.86c0.01,0.02,0.06,0.01,0.16,0.01c0-0.46,0-0.92,0-1.38c0.01-9.13,2.42-17.52,7.69-25.03
			c1.49-2.12,3.22-4.05,5.3-5.62c1.78-1.35,3.72-2.38,5.94-2.8c3.05-0.58,5.71,0.51,7.41,3.11c1.57,2.4,2.12,5.09,1.87,7.9
			c-0.47,5.34-2.48,10.06-6.02,14.11c-1.01,1.16-2.15,2.18-3.49,2.95c-3.29,1.88-6.57,0.81-8.04-2.7c-1-2.37-0.9-4.8,0.1-7.15
			c0.49-1.15,1.18-2.22,1.83-3.29c0.41-0.67,1.11-0.84,1.66-0.51c0.6,0.35,0.71,1.03,0.28,1.79c-0.41,0.71-0.86,1.39-1.25,2.11
			c-0.9,1.68-1.18,3.46-0.74,5.33c0.21,0.92,0.67,1.7,1.38,2.33c0.79,0.7,1.67,0.86,2.65,0.5c1.18-0.43,2.13-1.18,3.02-2.04
			c2.44-2.38,4.09-5.24,5.18-8.44c0.79-2.3,1.23-4.66,1.05-7.11c-0.09-1.31-0.42-2.55-1.01-3.71c-1.29-2.56-3.32-3.46-6.09-2.71
			c-2.3,0.62-4.19,1.92-5.88,3.54c-2.25,2.16-4.08,4.66-5.54,7.4c-3.62,6.78-5.28,14.02-4.92,21.71c0.03,0.58,0.11,1.15,0.17,1.72
			c0.01,0.05,0.07,0.09,0.19,0.25c0.14-0.4,0.26-0.74,0.38-1.07c0.73-2.13,1.96-3.88,3.85-5.12c1.62-1.07,3.33-1.31,5.11-0.38
			c0.21,0.11,0.42,0.23,0.59,0.39c0.43,0.39,0.51,0.92,0.24,1.39c-0.25,0.46-0.76,0.67-1.31,0.54c-0.23-0.06-0.45-0.15-0.66-0.26
			c-0.96-0.48-1.85-0.26-2.7,0.29c-1.08,0.7-1.9,1.65-2.45,2.81c-0.8,1.67-1.18,3.45-1.29,5.4c0.24,0,0.43,0.03,0.61,0
			c8.6-1.65,16.54,0.12,23.97,4.55c4.93,2.94,9.08,6.8,12.87,11.06c8.66,9.75,14.36,21.06,17.69,33.62
			c0.09,0.33,0.18,0.65,0.31,1.15c0.21-0.29,0.37-0.47,0.49-0.67c1.2-2.05,2.39-4.12,3.6-6.17c3.61-6.11,9.1-9,16.06-9.46
			c3.98-0.26,7.88,0.2,11.77,0.88c6.53,1.14,12.99,2.64,19.36,4.47c2.68,0.77,5.28,1.79,7.76,3.07c1.28,0.66,2.46,1.45,3.37,2.6
			c0.83,1.05,1.32,2.22,1.02,3.6c-0.22,1.01-0.8,1.79-1.58,2.43c-1.14,0.92-2.48,1.4-3.87,1.75c-2.87,0.72-5.79,0.75-8.72,0.52
			c-0.87-0.07-1.74-0.11-2.86-0.18c0.35,0.47,0.56,0.76,0.77,1.05c0.92,1.28,1.71,2.62,1.97,4.21c0.43,2.61-0.41,4.77-2.47,6.41
			c-1.83,1.46-4,1.96-6.29,2.05c-2.75,0.1-5.4-0.49-8.06-1.08c-0.62-0.14-1.24-0.26-1.97-0.41c0.44,0.92,0.84,1.7,1.18,2.51
			c0.61,1.48,0.86,3,0.48,4.59c-0.37,1.54-1.24,2.7-2.61,3.48c-1.05,0.61-2.18,0.91-3.39,0.98c-2.41,0.13-4.74-0.27-7.04-0.96
			c-2.11-0.64-4.23-1.27-6.33-1.96c-0.75-0.25-1.3-0.15-1.82,0.43C309.59,283,308.95,283.61,308.26,284.31z M254.49,289.68
			c-0.28-0.43-0.47-0.73-0.66-1.03c-2.53-4.15-5.1-8.28-8-12.19c-1.77-2.38-3.67-4.65-5.98-6.53c-1.49-1.21-3.1-2.21-4.95-2.76
			c-4.32-1.29-8.69,0.74-10.38,4.92c-0.48,1.18-0.77,2.47-0.93,3.74c-0.47,3.56,0.26,6.97,1.48,10.29
			c2.01,5.49,5.34,10.15,9.25,14.41c4.14,4.51,8.9,8.3,14.14,11.45c9.02,5.43,18.47,9.82,28.87,11.92
			c4.76,0.96,9.54,1.41,14.39,1.11c0.4-0.02,0.81-0.08,1.21-0.19c0.9-0.24,1.19-0.91,0.72-1.71c-0.24-0.4-0.58-0.76-0.92-1.08
			c-3.24-3.07-5.89-6.57-7.89-10.57c-1.35-2.71-2.46-5.53-3.32-8.43c-1.22-4.07-1.69-8.25-1.94-12.46c-0.18-3.02-0.34-6.04-0.9-9.02
			c-0.63-3.32-1.52-6.55-3.08-9.57c-0.94-1.83-2.11-3.49-3.68-4.84c-3.75-3.23-8.45-3.29-12.29-0.17c-1.71,1.38-2.88,3.16-3.77,5.13
			c-1.73,3.8-2.28,7.81-2,11.94C253.97,285.86,254.25,287.67,254.49,289.68z M346.11,317.41c4.45-0.09,8.78-0.96,13.08-2.01
			c0.19-0.05,0.39-0.13,0.56-0.24c0.38-0.26,0.5-0.63,0.37-1.07c-0.12-0.42-0.46-0.6-0.85-0.6c-0.33,0-0.67,0.08-1,0.16
			c-1.29,0.29-2.58,0.6-3.88,0.87c-5.25,1.07-10.52,1.35-15.82,0.43c-9.56-1.66-18.06-5.62-25.5-11.84
			c-1.85-1.55-3.55-3.27-5.04-5.19c-0.42-0.54-0.84-1.07-1.28-1.59c-0.44-0.52-0.9-0.61-1.33-0.32c-0.47,0.32-0.54,0.83-0.19,1.44
			c0.07,0.12,0.15,0.23,0.23,0.34c1.59,2.22,3.47,4.19,5.5,6.01c4.8,4.33,10.29,7.55,16.27,9.95
			C333.29,316.18,339.57,317.49,346.11,317.41z M234.44,238.43c0.02-1.17-0.15-2.1-0.59-2.97c-1.18-2.31-4.06-2.96-6.05-1.31
			c-0.58,0.48-1.08,1.14-1.44,1.82c-0.72,1.37-1.02,2.87-0.99,4.43c0.02,1.01,0.31,1.94,0.87,2.78c1.2,1.79,3.33,2.28,5.19,1.19
			c0.97-0.57,1.66-1.39,2.13-2.4C234.12,240.79,234.4,239.53,234.44,238.43z M335.94,323.57c1.46,0,2.92,0,4.38,0
			c0.27,0,0.55-0.01,0.81-0.07c0.47-0.11,0.79-0.39,0.8-0.91c0.01-0.49-0.32-0.85-0.9-0.92c-0.4-0.05-0.81-0.01-1.22,0
			c-5.25,0.23-10.44,0.04-15.58-1.29c-7.04-1.82-13.42-4.78-18.62-9.98c-0.12-0.12-0.25-0.24-0.39-0.33
			c-0.43-0.27-0.9-0.24-1.22,0.07c-0.32,0.31-0.36,0.79-0.09,1.21c0.13,0.2,0.3,0.37,0.47,0.53c2.01,2,4.2,3.77,6.64,5.2
			C318.72,321.6,327.05,323.7,335.94,323.57z M324.63,330.09c0.44,0,0.89,0.04,1.32-0.01c0.55-0.07,0.89-0.47,0.88-0.95
			c-0.01-0.49-0.34-0.82-0.92-0.89c-0.23-0.03-0.47-0.02-0.71-0.03c-6.27-0.4-12.14-2.09-17.56-5.31c-0.2-0.12-0.41-0.26-0.63-0.33
			c-0.42-0.13-0.81-0.07-1.09,0.32c-0.25,0.35-0.22,0.87,0.14,1.2c0.29,0.28,0.64,0.5,0.99,0.71
			C312.49,327.96,318.4,329.55,324.63,330.09z"/>
		<path class="st45" d="M194.3,247.26c-0.22-0.24-0.44-0.49-0.67-0.73c-4.21-4.39-7.34-9.42-9.18-15.23
			c-0.13-0.42-0.27-0.85-0.3-1.28c-0.08-1.18,0.92-1.83,1.96-1.3c0.24,0.12,0.47,0.28,0.67,0.46c3.14,2.82,6.84,4.65,10.72,6.17
			c3.29,1.29,6.65,2.38,10.1,3.19c1.34,0.31,1.86,1.14,1.56,2.5c-0.44,1.99-0.98,3.96-1.39,5.95c-0.81,4.02-1.1,8.08-0.82,12.17
			c0.03,0.37,0.04,0.75,0.03,1.12c-0.04,1.27-0.67,1.95-1.94,2.03c-0.57,0.04-1.16,0.02-1.73-0.06c-4.1-0.51-7.91-1.91-11.53-3.84
			c-4.69-2.5-8.8-5.78-12.59-9.47c-0.05-0.05-0.09-0.1-0.14-0.15c-0.55-0.54-0.86-1.18-0.54-1.93c0.33-0.77,1.05-0.96,1.79-0.89
			c1.56,0.15,3.1,0.39,4.66,0.56c3.07,0.33,6.15,0.63,9.22,0.94C194.22,247.39,194.26,247.32,194.3,247.26z"/>
		<path class="st45" d="M300.52,352.26c-3.24,0.21-5.03,2.74-4.87,5.18c0.06,0.92,0.14,1.83,0.2,2.74c0.02,0.27,0.05,0.55,0.02,0.81
			c-0.07,0.6-0.41,0.96-0.94,1.05c-0.56,0.09-1.05-0.2-1.27-0.79c-0.11-0.28-0.18-0.59-0.2-0.89c-0.07-0.95-0.12-1.9-0.15-2.85
			c-0.08-2.28,0.76-4.18,2.41-5.73c0.07-0.07,0.15-0.14,0.22-0.21c0.02-0.02,0.03-0.06,0.08-0.18c-0.25,0.04-0.46,0.06-0.65,0.11
			c-2.69,0.75-4.73,2.32-6,4.84c-0.26,0.51-0.52,1.03-0.82,1.52c-0.41,0.67-1.08,0.88-1.64,0.58c-0.53-0.29-0.72-0.93-0.43-1.61
			c1.86-4.33,4.97-7.14,9.72-7.94c0.27-0.05,0.54-0.09,0.8-0.15c0.06-0.01,0.11-0.07,0.23-0.15c-0.31-0.24-0.6-0.46-0.89-0.67
			c-3.1-2.21-4.82-5.28-5.54-8.95c-0.1-0.49-0.1-1.02-0.06-1.52c0.05-0.62,0.5-1.01,1.06-1.04c0.62-0.04,1.07,0.34,1.19,1.01
			c0.08,0.43,0.08,0.88,0.16,1.31c0.57,2.87,1.91,5.29,4.26,7.08c1.55,1.18,3.25,2.1,5.06,2.82c0.47,0.19,0.96,0.36,1.4,0.61
			c1.04,0.57,1.16,1.49,0.34,2.33c-0.45,0.46-0.92,0.92-1.28,1.44c-0.75,1.12-0.91,2.32-0.31,3.57c0.12,0.25,0.24,0.49,0.31,0.75
			c0.19,0.66-0.05,1.23-0.57,1.48c-0.54,0.25-1.14,0.08-1.49-0.51c-0.78-1.36-1.23-2.8-0.82-4.39
			C300.17,353.37,300.34,352.86,300.52,352.26z"/>
		<path class="st45" d="M321.36,352.26c-3.24,0.21-5.03,2.74-4.87,5.18c0.06,0.92,0.14,1.83,0.2,2.74c0.02,0.27,0.05,0.55,0.02,0.81
			c-0.07,0.6-0.41,0.96-0.94,1.05c-0.56,0.09-1.05-0.2-1.27-0.79c-0.11-0.28-0.18-0.59-0.2-0.89c-0.07-0.95-0.12-1.9-0.15-2.85
			c-0.08-2.28,0.76-4.18,2.41-5.73c0.07-0.07,0.15-0.14,0.22-0.21c0.02-0.02,0.03-0.06,0.08-0.18c-0.25,0.04-0.46,0.06-0.65,0.11
			c-2.69,0.75-4.73,2.32-6,4.84c-0.26,0.51-0.52,1.03-0.82,1.52c-0.41,0.67-1.08,0.88-1.64,0.58c-0.53-0.29-0.72-0.93-0.43-1.61
			c1.86-4.33,4.97-7.14,9.72-7.94c0.27-0.05,0.54-0.09,0.8-0.15c0.06-0.01,0.11-0.07,0.23-0.15c-0.31-0.24-0.6-0.46-0.89-0.67
			c-3.1-2.21-4.82-5.28-5.54-8.95c-0.1-0.49-0.1-1.02-0.06-1.52c0.05-0.62,0.5-1.01,1.06-1.04c0.62-0.04,1.07,0.34,1.19,1.01
			c0.08,0.43,0.08,0.88,0.16,1.31c0.57,2.87,1.91,5.29,4.26,7.08c1.55,1.18,3.25,2.1,5.06,2.82c0.47,0.19,0.96,0.36,1.4,0.61
			c1.04,0.57,1.16,1.49,0.34,2.33c-0.45,0.46-0.92,0.92-1.28,1.44c-0.75,1.12-0.91,2.32-0.31,3.57c0.12,0.25,0.24,0.49,0.31,0.75
			c0.19,0.66-0.05,1.23-0.57,1.48c-0.54,0.25-1.14,0.08-1.49-0.51c-0.78-1.36-1.23-2.8-0.82-4.39
			C321.01,353.37,321.18,352.86,321.36,352.26z"/>
		<path class="st44" d="M290.93,323c-0.54,0.07-0.87,0.14-1.2,0.15c-3.24,0.12-6.44-0.17-9.64-0.69
			c-9.92-1.64-19.02-5.47-27.72-10.38c-5.96-3.36-11.47-7.32-16.16-12.32c-3.78-4.04-7.09-8.42-9.11-13.65
			c-1.12-2.91-1.86-5.9-1.71-9.05c0.06-1.37,0.29-2.7,0.77-3.99c1.29-3.42,4.65-5.08,8.16-4.07c1.7,0.49,3.15,1.43,4.48,2.55
			c2.07,1.73,3.81,3.79,5.4,5.95c3.5,4.73,6.58,9.75,9.56,14.81c0.83,1.4,1.66,2.81,2.49,4.21c0.12,0.2,0.24,0.41,0.39,0.59
			c0.3,0.36,0.67,0.59,1.16,0.39c0.46-0.18,0.7-0.59,0.61-1.15c-0.06-0.37-0.19-0.72-0.31-1.08c-0.88-2.65-1.62-5.33-2.03-8.1
			c-0.61-4.15-0.66-8.28,0.72-12.3c0.47-1.37,1.13-2.69,1.83-3.97c0.71-1.3,1.78-2.31,3.03-3.11c2.61-1.67,5.58-1.63,8.14,0.13
			c1.6,1.1,2.77,2.6,3.71,4.27c1.25,2.21,2.04,4.59,2.66,7.03c0.97,3.81,1.26,7.71,1.44,11.62c0.4,9,2.75,17.41,7.55,25.1
			c1.39,2.23,3.05,4.25,4.88,6.13C290.31,322.34,290.54,322.59,290.93,323z"/>
	</g>
</g>
<script>alert('xs')</script>
</svg>
